<mxfile host="app.diagrams.net" agent="Mozilla/5.0 (Macintosh; Intel Mac OS X 10_15_7) AppleWebKit/605.1.15 (KHTML, like Gecko) Version/18.0 Safari/605.1.15" version="24.7.17">
  <diagram id="VGGc8FmdYeOzv_EWwVf0" name="Page-1">
    <mxGraphModel dx="954" dy="675" grid="1" gridSize="10" guides="1" tooltips="1" connect="1" arrows="1" fold="1" page="1" pageScale="1" pageWidth="827" pageHeight="1169" background="none" math="0" shadow="0">
      <root>
        <mxCell id="0" />
        <mxCell id="1" parent="0" />
        <mxCell id="yfvnBzRg5w3GhVtsojFv-1" value="T2" style="rounded=0;whiteSpace=wrap;html=1;" vertex="1" parent="1">
          <mxGeometry x="470" y="500" width="120" height="60" as="geometry" />
        </mxCell>
        <mxCell id="yfvnBzRg5w3GhVtsojFv-2" value="T1" style="rounded=0;whiteSpace=wrap;html=1;" vertex="1" parent="1">
          <mxGeometry x="160" y="500" width="120" height="60" as="geometry" />
        </mxCell>
        <mxCell id="yfvnBzRg5w3GhVtsojFv-3" value="B1" style="ellipse;whiteSpace=wrap;html=1;" vertex="1" parent="1">
          <mxGeometry x="640" y="330" width="120" height="80" as="geometry" />
        </mxCell>
        <mxCell id="yfvnBzRg5w3GhVtsojFv-4" value="E1" style="ellipse;whiteSpace=wrap;html=1;" vertex="1" parent="1">
          <mxGeometry x="80" y="370" width="120" height="80" as="geometry" />
        </mxCell>
        <mxCell id="yfvnBzRg5w3GhVtsojFv-5" value="" style="endArrow=none;html=1;rounded=0;entryX=0.5;entryY=1;entryDx=0;entryDy=0;exitX=0.433;exitY=0.033;exitDx=0;exitDy=0;exitPerimeter=0;strokeColor=#FFF2CC;" edge="1" parent="1" source="yfvnBzRg5w3GhVtsojFv-2" target="yfvnBzRg5w3GhVtsojFv-4">
          <mxGeometry width="50" height="50" relative="1" as="geometry">
            <mxPoint x="180" y="490" as="sourcePoint" />
            <mxPoint x="230" y="440" as="targetPoint" />
          </mxGeometry>
        </mxCell>
        <mxCell id="yfvnBzRg5w3GhVtsojFv-6" value="" style="endArrow=none;html=1;rounded=0;exitX=0.5;exitY=0;exitDx=0;exitDy=0;strokeColor=#FFFFFF;" edge="1" parent="1" source="yfvnBzRg5w3GhVtsojFv-1" target="yfvnBzRg5w3GhVtsojFv-3">
          <mxGeometry width="50" height="50" relative="1" as="geometry">
            <mxPoint x="552" y="422" as="sourcePoint" />
            <mxPoint x="480" y="370" as="targetPoint" />
          </mxGeometry>
        </mxCell>
        <mxCell id="yfvnBzRg5w3GhVtsojFv-7" value="connect" style="rhombus;whiteSpace=wrap;html=1;" vertex="1" parent="1">
          <mxGeometry x="340" y="490" width="80" height="80" as="geometry" />
        </mxCell>
        <mxCell id="yfvnBzRg5w3GhVtsojFv-8" value="" style="endArrow=none;html=1;rounded=0;strokeColor=#FFFFFF;entryX=0;entryY=0.5;entryDx=0;entryDy=0;" edge="1" parent="1" target="yfvnBzRg5w3GhVtsojFv-1">
          <mxGeometry width="50" height="50" relative="1" as="geometry">
            <mxPoint x="410" y="530" as="sourcePoint" />
            <mxPoint x="450" y="510" as="targetPoint" />
          </mxGeometry>
        </mxCell>
        <mxCell id="yfvnBzRg5w3GhVtsojFv-9" value="" style="endArrow=none;html=1;rounded=0;strokeColor=#FFFFFF;entryX=0.008;entryY=0.633;entryDx=0;entryDy=0;exitX=0.85;exitY=0.6;exitDx=0;exitDy=0;entryPerimeter=0;exitPerimeter=0;" edge="1" parent="1" source="yfvnBzRg5w3GhVtsojFv-7" target="yfvnBzRg5w3GhVtsojFv-1">
          <mxGeometry width="50" height="50" relative="1" as="geometry">
            <mxPoint x="414" y="540" as="sourcePoint" />
            <mxPoint x="464" y="540" as="targetPoint" />
          </mxGeometry>
        </mxCell>
        <mxCell id="yfvnBzRg5w3GhVtsojFv-10" value="" style="endArrow=none;html=1;rounded=0;strokeColor=#FFFFFF;entryX=0;entryY=0.5;entryDx=0;entryDy=0;exitX=1;exitY=0.5;exitDx=0;exitDy=0;" edge="1" parent="1" source="yfvnBzRg5w3GhVtsojFv-2">
          <mxGeometry width="50" height="50" relative="1" as="geometry">
            <mxPoint x="333.0434782608695" y="510" as="sourcePoint" />
            <mxPoint x="350" y="529.5" as="targetPoint" />
          </mxGeometry>
        </mxCell>
        <mxCell id="yfvnBzRg5w3GhVtsojFv-12" value="E2" style="ellipse;whiteSpace=wrap;html=1;" vertex="1" parent="1">
          <mxGeometry x="50" y="570" width="120" height="80" as="geometry" />
        </mxCell>
        <mxCell id="yfvnBzRg5w3GhVtsojFv-13" value="" style="endArrow=none;html=1;rounded=0;entryX=0.5;entryY=1;entryDx=0;entryDy=0;exitX=0.5;exitY=1;exitDx=0;exitDy=0;strokeColor=#FFF2CC;" edge="1" parent="1" target="yfvnBzRg5w3GhVtsojFv-12" source="yfvnBzRg5w3GhVtsojFv-2">
          <mxGeometry width="50" height="50" relative="1" as="geometry">
            <mxPoint x="182" y="702" as="sourcePoint" />
            <mxPoint x="200" y="640" as="targetPoint" />
          </mxGeometry>
        </mxCell>
        <mxCell id="yfvnBzRg5w3GhVtsojFv-14" value="B2" style="ellipse;whiteSpace=wrap;html=1;" vertex="1" parent="1">
          <mxGeometry x="650" y="560" width="120" height="80" as="geometry" />
        </mxCell>
        <mxCell id="yfvnBzRg5w3GhVtsojFv-15" value="" style="endArrow=none;html=1;rounded=0;exitX=0.65;exitY=1.067;exitDx=0;exitDy=0;strokeColor=#FFFFFF;exitPerimeter=0;" edge="1" parent="1" target="yfvnBzRg5w3GhVtsojFv-14" source="yfvnBzRg5w3GhVtsojFv-1">
          <mxGeometry width="50" height="50" relative="1" as="geometry">
            <mxPoint x="540" y="730" as="sourcePoint" />
            <mxPoint x="490" y="600" as="targetPoint" />
          </mxGeometry>
        </mxCell>
        <mxCell id="yfvnBzRg5w3GhVtsojFv-18" value="&lt;font color=&quot;#ffffff&quot;&gt;1&lt;/font&gt;" style="text;html=1;align=center;verticalAlign=middle;whiteSpace=wrap;rounded=0;" vertex="1" parent="1">
          <mxGeometry x="420" y="500" width="60" height="30" as="geometry" />
        </mxCell>
        <mxCell id="yfvnBzRg5w3GhVtsojFv-19" value="&lt;font color=&quot;#ffffff&quot;&gt;1&lt;/font&gt;" style="text;html=1;align=center;verticalAlign=middle;whiteSpace=wrap;rounded=0;" vertex="1" parent="1">
          <mxGeometry x="270" y="500" width="60" height="30" as="geometry" />
        </mxCell>
      </root>
    </mxGraphModel>
  </diagram>
</mxfile>
